<svg id="e5vGkfATSyt1" xmlns="http://www.w3.org/2000/svg" xmlns:xlink="http://www.w3.org/1999/xlink" viewBox="0 0 32 32" shape-rendering="geometricPrecision" text-rendering="geometricPrecision"><defs><filter id="e5vGkfATSyt8-filter" x="-150%" width="400%" y="-150%" height="400%"><feGaussianBlur id="e5vGkfATSyt8-filter-blur-0" stdDeviation="2,2" result="result"/></filter></defs><g transform="matrix(1.262931 0 0 1.262649 15.381441 13.72776)"><g><g transform="matrix(.343137 0 0 0.343137-17.5-17.5)"><g><rect width="31.999999" height="31.995127" rx="3" ry="3" transform="matrix(2.307559 0 0 2.308426 15.506456 19.315346)" fill="#150e13" stroke-width="0"/><circle r="36.923568" transform="translate(52.430024 56.238916)" fill="#150e13"/><rect style="mix-blend-mode:color-dodge" width="32" height="32" rx="4" ry="4" transform="matrix(1.6 0 0 2 26.830024 24.238915)" filter="url(#e5vGkfATSyt8-filter)" fill="rgba(255,187,0,0.2)"/></g></g><g transform="matrix(.625 0 0 0.625-7.34375-8.6)"><g><path d="M23.310854,11.469933l-4.473657,4.369782h-15.796651c-.559749,0-1.013515-.44323-1.013515-.989983s.453766-.989982,1.013515-.989982h14.608811l3.634466-3.550076v-4.369781c0-1.09096-.909123-1.979964-2.027031-1.979964h-4.054061v1.979964h4.054061v3.550076l-2.446626,2.389817h-3.634466v-9.899822h7.094607c1.676355,0,3.040547,1.332516,3.040547,2.969947v6.520022ZM8.108123,24.339701l-1.013515.989982c-.542231.527661-1.4848.527661-2.027031,0l-1.013516-.989982v-6.520022h4.054062v6.520022ZM7.094608,6.746728c1.211097-.416667,2.022788-1.532595,2.02703-2.786799v-1.979965h2.027031v9.899822h-4.054061v-5.133058ZM5.067577,1.979964h2.027031v1.979965c0,.546752-.453766.989982-1.013516.989982s-1.013515-.44323-1.013515-.989982v-1.979965ZM20.270307,0L3.040546,0v3.959929c0,1.288956.85034,2.375957,2.027031,2.786799v5.133058h-2.027031C1.364192,11.879786,0,13.212302,0,14.849732c0,1.288957.850339,2.375958,2.027031,2.7868v7.522875l1.607435,1.570111c.405406.395993.900002.667248,1.433111.826635v4.123276h2.027031v-4.123276c.539991-.15632,1.032213-.440239,1.43311-.826635l1.607436-1.570111v-7.339728h9.541233l5.661497-5.53004v-7.339728C25.337884,2.22053,23.064569,0,20.270307,0Z" transform="translate(-.133852 0.79653)" fill="#fb0" fill-rule="evenodd"/></g></g></g></g></svg>
