<svg viewBox="0 0 39.0625 50" xmlns="http://www.w3.org/2000/svg" xmlns:xlink="http://www.w3.org/1999/xlink" version="1.1" class="jsx-2263963463 artboard-inner" style="width: 13px; height: 16.64px; max-height: 100%;" width="39.0625"  height="50" ><g transform="translate(0 0) scale(1.5625)" id="lockup4-icon"><g fill="#232323"><path fill-rule="evenodd" d="M23 11.586L18.586 16H3a1 1 0 0 1 0-2h14.414L21 10.414V6c0-1.102-.897-2-2-2h-4v2h4v3.586L16.586 12H13V2h7c1.654 0 3 1.346 3 3v6.586zm-15 13l-1 1c-.535.533-1.465.533-2 0l-1-1V18h4v6.586zM7 6.815A2.995 2.995 0 0 0 9 4V2h2v10H7V6.815zM5 2h2v2a1 1 0 0 1-2 0V2zm15-2H3v4c0 1.302.839 2.4 2 2.815V12H3c-1.654 0-3 1.346-3 3 0 1.302.839 2.4 2 2.815v7.599L3.586 27c.4.4.888.674 1.414.835V32h2v-4.165A3.381 3.381 0 0 0 8.414 27L10 25.414V18h9.414L25 12.414V5c0-2.757-2.243-5-5-5z" fill="#232323"></path></g></g></svg>