<svg viewBox="-186.94599999999514 -85.99999999999999 1343.143079365079 200" xmlns="http://www.w3.org/2000/svg" xmlns:xlink="http://www.w3.org/1999/xlink" version="1.1" class="jsx-2263963463 artboard-inner" style="width: 153px; height: 22.7824px; max-height: 100%;" width="100"  height="100" ><g transform="translate(-3.492063492058471 44.03174603174601) scale(1.805996472663139)" fill="#FFFFFF"><g id="line1" fill="#FFFFFF"><path d="M44.930-5.168L39.586-13.957C38.109-12.363 36.363-11.139 34.348-10.283C32.332-9.428 30.223-9.000 28.020-9C25.793-9 23.707-9.422 21.762-10.266C19.816-11.109 18.117-12.258 16.664-13.711C15.211-15.164 14.063-16.857 13.219-18.791C12.375-20.725 11.953-22.793 11.953-24.996C11.953-27.199 12.375-29.279 13.219-31.236C14.063-33.193 15.211-34.893 16.664-36.334C18.117-37.775 19.816-38.918 21.762-39.762C23.707-40.605 25.793-41.027 28.020-41.027C30.223-41.027 32.332-40.600 34.348-39.744C36.363-38.889 38.109-37.664 39.586-36.070L44.930-44.859C42.586-46.898 39.961-48.451 37.055-49.518C34.148-50.584 31.137-51.117 28.020-51.117C25.629-51.117 23.326-50.807 21.111-50.186C18.896-49.564 16.822-48.686 14.889-47.549C12.955-46.412 11.191-45.047 9.598-43.453C8.004-41.859 6.639-40.096 5.502-38.162C4.365-36.229 3.486-34.148 2.865-31.922C2.244-29.695 1.934-27.387 1.934-24.996C1.934-22.605 2.244-20.303 2.865-18.088C3.486-15.873 4.365-13.799 5.502-11.865C6.639-9.932 8.004-8.168 9.598-6.574C11.191-4.980 12.955-3.615 14.889-2.479C16.822-1.342 18.896-0.463 21.111 0.158C23.326 0.779 25.629 1.090 28.020 1.090C31.137 1.090 34.148 0.551 37.055-0.527C39.961-1.605 42.586-3.152 44.930-5.168Z" fill="#FFFFFF"></path><path d="M84.400-19.160C84.400-22.160 83.896-24.885 82.888-27.334C81.881-29.783 80.509-31.881 78.775-33.627C77.041-35.373 75.007-36.721 72.675-37.670C70.343-38.619 67.841-39.094 65.170-39.094C62.521-39.094 60.031-38.590 57.699-37.582C55.367-36.574 53.328-35.186 51.582-33.416C49.836-31.646 48.459-29.543 47.451-27.105C46.443-24.668 45.939-22.020 45.939-19.160C45.939-16.348 46.443-13.729 47.451-11.303C48.459-8.877 49.836-6.779 51.582-5.010C53.328-3.240 55.367-1.846 57.699-0.826C60.031 0.193 62.521 0.703 65.170 0.703C67.841 0.703 70.343 0.193 72.675-0.826C75.007-1.846 77.041-3.240 78.775-5.010C80.509-6.779 81.881-8.877 82.888-11.303C83.896-13.729 84.400-16.348 84.400-19.160ZM74.732-19.160C74.732-17.637 74.480-16.242 73.976-14.977C73.472-13.711 72.787-12.633 71.920-11.742C71.052-10.852 70.039-10.160 68.879-9.668C67.718-9.176 66.482-8.930 65.170-8.930C63.857-8.930 62.621-9.193 61.461-9.721C60.300-10.248 59.293-10.969 58.437-11.883C57.582-12.797 56.908-13.875 56.416-15.117C55.923-16.359 55.677-17.707 55.677-19.160C55.677-20.707 55.923-22.107 56.416-23.361C56.908-24.615 57.582-25.693 58.437-26.596C59.293-27.498 60.300-28.189 61.461-28.670C62.621-29.150 63.857-29.391 65.170-29.391C66.482-29.391 67.718-29.150 68.879-28.670C70.039-28.190 71.052-27.498 71.920-26.596C72.787-25.693 73.472-24.615 73.976-23.361C74.480-22.107 74.732-20.707 74.732-19.160Z" fill="#FFFFFF"></path><path d="M98.874 0L98.874-21.516C98.874-22.500 99.062-23.432 99.437-24.311C99.812-25.189 100.327-25.957 100.984-26.613C101.640-27.270 102.413-27.785 103.304-28.160C104.195-28.535 105.144-28.723 106.152-28.723C107.136-28.723 108.062-28.535 108.929-28.160C109.796-27.785 110.558-27.270 111.214-26.613C111.870-25.957 112.386-25.189 112.761-24.311C113.136-23.432 113.323-22.500 113.323-21.516L113.323 0L122.921 0L122.921-21.516C122.921-23.836 122.482-26.021 121.603-28.072C120.724-30.123 119.523-31.916 117.999-33.451C116.476-34.986 114.695-36.193 112.656-37.072C110.616-37.951 108.448-38.391 106.152-38.391C104.019-38.391 101.974-38.010 100.017-37.248C98.060-36.486 96.308-35.402 94.761-33.996L91.597-37.652L89.277-37.652L89.277 0Z" fill="#FFFFFF"></path><path d="M149.981 0C151.622 0 153.169-0.311 154.622-0.932C156.075-1.553 157.341-2.408 158.419-3.498C159.497-4.588 160.352-5.854 160.985-7.295C161.618-8.736 161.934-10.289 161.934-11.953C161.934-13.594 161.618-15.105 160.985-16.488C160.352-17.871 159.497-19.055 158.419-20.039C157.341-21.023 156.075-21.791 154.622-22.342C153.169-22.893 151.622-23.168 149.981-23.168L139.997-23.168C139.341-23.168 138.778-23.408 138.309-23.889C137.841-24.369 137.606-24.949 137.606-25.629C137.606-26.285 137.841-26.848 138.309-27.316C138.778-27.785 139.341-28.020 139.997-28.020L159.438-28.020L159.438-37.582L139.997-37.582C138.333-37.582 136.774-37.271 135.321-36.650C133.868-36.029 132.602-35.180 131.524-34.102C130.446-33.023 129.597-31.758 128.975-30.305C128.354-28.852 128.044-27.293 128.044-25.629C128.044-23.965 128.354-22.406 128.975-20.953C129.597-19.500 130.446-18.229 131.524-17.139C132.602-16.049 133.868-15.188 135.321-14.555C136.774-13.922 138.333-13.605 139.997-13.605L149.981-13.605C150.638-13.605 151.200-13.500 151.669-13.289C152.138-13.078 152.372-12.633 152.372-11.953C152.372-11.297 152.138-10.734 151.669-10.266C151.200-9.797 150.638-9.563 149.981-9.563L128.044-9.563L128.044 0Z" fill="#FFFFFF"></path><path d="M185.479 0L192.756 0L192.756-9.563L185.479-9.563C184.471-9.563 183.522-9.756 182.631-10.143C181.741-10.529 180.967-11.051 180.311-11.707C179.655-12.363 179.139-13.131 178.764-14.010C178.389-14.889 178.202-15.832 178.202-16.840L178.202-28.020L192.756-28.020L192.756-37.582L178.202-37.582L178.202-52.629L168.639-52.629L168.639-37.582L163.963-37.582L163.963-28.020L168.639-28.020L168.639-16.840C168.639-14.520 169.079-12.340 169.958-10.301C170.836-8.262 172.043-6.475 173.579-4.939C175.114-3.404 176.901-2.197 178.940-1.318C180.979-0.439 183.159 0 185.479 0Z" fill="#FFFFFF"></path><path d="M234.160 0L234.160-37.582L231.840-37.582L228.113-33.117C227.223-33.961 226.268-34.746 225.248-35.473C224.229-36.199 223.156-36.832 222.031-37.371C220.906-37.910 219.746-38.332 218.551-38.637C217.356-38.941 216.149-39.094 214.930-39.094C212.281-39.094 209.791-38.607 207.459-37.635C205.127-36.662 203.088-35.297 201.342-33.539C199.596-31.781 198.219-29.678 197.211-27.229C196.203-24.779 195.699-22.090 195.699-19.160C195.699-16.020 196.203-13.219 197.211-10.758C198.219-8.297 199.596-6.217 201.342-4.518C203.088-2.818 205.127-1.523 207.459-0.633C209.791 0.258 212.281 0.703 214.930 0.703C216.149 0.703 217.350 0.551 218.533 0.246C219.717-0.059 220.871-0.475 221.996-1.002C223.121-1.529 224.194-2.150 225.213-2.865C226.233-3.580 227.199-4.348 228.113-5.168L231.840 0ZM224.492-19.160C224.492-17.848 224.240-16.576 223.736-15.346C223.233-14.115 222.547-13.025 221.680-12.076C220.813-11.127 219.799-10.365 218.639-9.791C217.479-9.217 216.242-8.930 214.930-8.930C213.617-8.930 212.381-9.152 211.221-9.598C210.061-10.043 209.053-10.699 208.197-11.566C207.342-12.434 206.668-13.506 206.176-14.783C205.684-16.061 205.438-17.520 205.438-19.160C205.438-20.801 205.684-22.260 206.176-23.537C206.668-24.814 207.342-25.887 208.197-26.754C209.053-27.621 210.061-28.277 211.221-28.723C212.381-29.168 213.617-29.391 214.930-29.391C216.242-29.391 217.479-29.104 218.639-28.529C219.799-27.955 220.813-27.193 221.680-26.244C222.547-25.295 223.233-24.205 223.736-22.975C224.240-21.744 224.492-20.473 224.492-19.160Z" fill="#FFFFFF"></path><path d="M250.638 0L250.638-21.516C250.638-22.500 250.826-23.432 251.201-24.311C251.576-25.189 252.092-25.957 252.748-26.613C253.404-27.270 254.178-27.785 255.068-28.160C255.959-28.535 256.908-28.723 257.916-28.723C258.900-28.723 259.826-28.535 260.693-28.160C261.560-27.785 262.322-27.270 262.978-26.613C263.635-25.957 264.150-25.189 264.525-24.311C264.900-23.432 265.088-22.500 265.088-21.516L265.088 0L274.685 0L274.685-21.516C274.685-23.836 274.246-26.021 273.367-28.072C272.488-30.123 271.287-31.916 269.763-33.451C268.240-34.986 266.459-36.193 264.420-37.072C262.381-37.951 260.213-38.391 257.916-38.391C255.783-38.391 253.738-38.010 251.781-37.248C249.824-36.486 248.072-35.402 246.525-33.996L243.361-37.652L241.041-37.652L241.041 0Z" fill="#FFFFFF"></path><path d="M310.464 0L310.464-9.563L294.609-9.563L310.464-37.582L279.070-37.582L279.070-28.020L294.925-28.020L279.070 0Z" fill="#FFFFFF"></path><path d="M351.235 0L351.235-37.582L348.915-37.582L345.189-33.117C344.298-33.961 343.343-34.746 342.323-35.473C341.304-36.199 340.231-36.832 339.106-37.371C337.981-37.910 336.821-38.332 335.626-38.637C334.431-38.941 333.224-39.094 332.005-39.094C329.357-39.094 326.866-38.607 324.534-37.635C322.202-36.662 320.163-35.297 318.417-33.539C316.671-31.781 315.294-29.678 314.286-27.229C313.278-24.779 312.774-22.090 312.774-19.160C312.774-16.020 313.278-13.219 314.286-10.758C315.294-8.297 316.671-6.217 318.417-4.518C320.163-2.818 322.202-1.523 324.534-0.633C326.866 0.258 329.357 0.703 332.005 0.703C333.224 0.703 334.425 0.551 335.608 0.246C336.792-0.059 337.946-0.475 339.071-1.002C340.196-1.529 341.269-2.150 342.288-2.865C343.308-3.580 344.274-4.348 345.189-5.168L348.915 0ZM341.567-19.160C341.567-17.848 341.315-16.576 340.812-15.346C340.308-14.115 339.622-13.025 338.755-12.076C337.888-11.127 336.874-10.365 335.714-9.791C334.554-9.217 333.317-8.930 332.005-8.930C330.692-8.930 329.456-9.152 328.296-9.598C327.136-10.043 326.128-10.699 325.273-11.566C324.417-12.434 323.743-13.506 323.251-14.783C322.759-16.061 322.513-17.520 322.513-19.160C322.513-20.801 322.759-22.260 323.251-23.537C323.743-24.814 324.417-25.887 325.273-26.754C326.128-27.621 327.136-28.277 328.296-28.723C329.456-29.168 330.692-29.391 332.005-29.391C333.317-29.391 334.554-29.104 335.714-28.529C336.874-27.955 337.888-27.193 338.755-26.244C339.622-25.295 340.308-24.205 340.812-22.975C341.315-21.744 341.567-20.473 341.567-19.160Z" fill="#FFFFFF"></path><path d="M366.694-34.559L368.135-50.414L357.975-50.414L359.417-34.559Z" fill="#FFFFFF"></path><path d="M395.547 0C397.188 0 398.735-0.311 400.188-0.932C401.641-1.553 402.907-2.408 403.985-3.498C405.063-4.588 405.918-5.854 406.551-7.295C407.184-8.736 407.500-10.289 407.500-11.953C407.500-13.594 407.184-15.105 406.551-16.488C405.918-17.871 405.063-19.055 403.985-20.039C402.907-21.023 401.641-21.791 400.188-22.342C398.735-22.893 397.188-23.168 395.547-23.168L385.563-23.168C384.907-23.168 384.344-23.408 383.875-23.889C383.407-24.369 383.172-24.949 383.172-25.629C383.172-26.285 383.407-26.848 383.875-27.316C384.344-27.785 384.907-28.020 385.563-28.020L405.004-28.020L405.004-37.582L385.563-37.582C383.899-37.582 382.340-37.271 380.887-36.650C379.434-36.029 378.168-35.180 377.090-34.102C376.012-33.023 375.162-31.758 374.541-30.305C373.920-28.852 373.610-27.293 373.610-25.629C373.610-23.965 373.920-22.406 374.541-20.953C375.162-19.500 376.012-18.229 377.090-17.139C378.168-16.049 379.434-15.188 380.887-14.555C382.340-13.922 383.899-13.605 385.563-13.605L395.547-13.605C396.203-13.605 396.766-13.500 397.235-13.289C397.703-13.078 397.938-12.633 397.938-11.953C397.938-11.297 397.703-10.734 397.235-10.266C396.766-9.797 396.203-9.563 395.547-9.563L373.610-9.563L373.610 0Z" fill="#FFFFFF"></path><path d="" fill="#FFFFFF"></path><path d="M429.945-35.297C429.945-33.211 430.343-31.248 431.140-29.408C431.937-27.568 433.021-25.963 434.392-24.592C435.763-23.221 437.363-22.137 439.191-21.340C441.019-20.543 442.976-20.145 445.062-20.145L455.152-20.145C455.855-20.145 456.511-20.016 457.121-19.758C457.730-19.500 458.263-19.143 458.720-18.686C459.177-18.229 459.535-17.695 459.793-17.086C460.050-16.477 460.179-15.820 460.179-15.117C460.179-14.414 460.050-13.758 459.793-13.148C459.535-12.539 459.177-12.006 458.720-11.549C458.263-11.092 457.730-10.734 457.121-10.477C456.511-10.219 455.855-10.090 455.152-10.090L432.757-10.090L432.757 0L455.152 0C457.238 0 459.201-0.398 461.041-1.195C462.880-1.992 464.486-3.076 465.857-4.447C467.228-5.818 468.306-7.418 469.091-9.246C469.877-11.074 470.269-13.031 470.269-15.117C470.269-17.203 469.877-19.166 469.091-21.006C468.306-22.846 467.228-24.451 465.857-25.822C464.486-27.193 462.880-28.271 461.041-29.057C459.201-29.842 457.238-30.234 455.152-30.234L445.062-30.234C444.359-30.234 443.703-30.363 443.093-30.621C442.484-30.879 441.951-31.236 441.494-31.693C441.037-32.150 440.679-32.689 440.421-33.311C440.164-33.932 440.035-34.594 440.035-35.297C440.035-36 440.164-36.656 440.421-37.266C440.679-37.875 441.037-38.408 441.494-38.865C441.951-39.322 442.484-39.680 443.093-39.938C443.703-40.195 444.359-40.324 445.062-40.324L468.195-40.324L468.195-50.414L445.062-50.414C442.976-50.414 441.019-50.016 439.191-49.219C437.363-48.422 435.763-47.338 434.392-45.967C433.021-44.596 431.937-42.996 431.140-41.168C430.343-39.340 429.945-37.383 429.945-35.297Z" fill="#FFFFFF"></path><path d="M493.673 0L500.950 0L500.950-9.563L493.673-9.563C492.665-9.563 491.716-9.756 490.825-10.143C489.935-10.529 489.161-11.051 488.505-11.707C487.849-12.363 487.333-13.131 486.958-14.010C486.583-14.889 486.396-15.832 486.396-16.840L486.396-28.020L500.950-28.020L500.950-37.582L486.396-37.582L486.396-52.629L476.833-52.629L476.833-37.582L472.157-37.582L472.157-28.020L476.833-28.020L476.833-16.840C476.833-14.520 477.273-12.340 478.152-10.301C479.030-8.262 480.238-6.475 481.773-4.939C483.308-3.404 485.095-2.197 487.134-1.318C489.173-0.439 491.353 0 493.673 0Z" fill="#FFFFFF"></path><path d="M533.565-4.395L536.729 0L539.050 0L539.050-37.652L529.452-37.652L529.452-16.840C529.452-15.832 529.265-14.854 528.889-13.904C528.515-12.955 527.999-12.105 527.343-11.355C526.686-10.605 525.919-10.002 525.040-9.545C524.161-9.088 523.229-8.859 522.245-8.859C521.237-8.859 520.294-9.035 519.415-9.387C518.536-9.738 517.768-10.254 517.112-10.934C516.456-11.613 515.934-12.451 515.548-13.447C515.161-14.443 514.968-15.574 514.968-16.840L514.968-37.652L505.405-37.652L505.405-16.840C505.405-14.145 505.845-11.713 506.723-9.545C507.602-7.377 508.809-5.537 510.345-4.025C511.880-2.514 513.667-1.348 515.706-0.527C517.745 0.293 519.925 0.703 522.245 0.703C523.300 0.703 524.337 0.568 525.356 0.299C526.376 0.029 527.366-0.334 528.327-0.791C529.288-1.248 530.208-1.787 531.087-2.408C531.966-3.029 532.792-3.691 533.565-4.395Z" fill="#FFFFFF"></path><path d="M582.317 0L582.317-52.629L572.649-52.629L572.649-35.051C572.133-35.801 571.500-36.434 570.750-36.949C570.000-37.465 569.198-37.881 568.342-38.197C567.487-38.514 566.608-38.742 565.706-38.883C564.803-39.023 563.930-39.094 563.086-39.094C560.438-39.094 557.948-38.590 555.616-37.582C553.284-36.574 551.245-35.180 549.499-33.398C547.752-31.617 546.375-29.508 545.368-27.070C544.360-24.633 543.856-21.996 543.856-19.160C543.856-16.301 544.360-13.658 545.368-11.232C546.375-8.807 547.752-6.709 549.499-4.939C551.245-3.170 553.284-1.787 555.616-0.791C557.948 0.205 560.438 0.703 563.086 0.703C564.305 0.703 565.506 0.551 566.690 0.246C567.874-0.059 569.028-0.475 570.153-1.002C571.278-1.529 572.350-2.150 573.370-2.865C574.389-3.580 575.356-4.348 576.270-5.168L579.997 0ZM572.649-19.160C572.649-17.848 572.397-16.576 571.893-15.346C571.389-14.115 570.704-13.025 569.836-12.076C568.969-11.127 567.956-10.365 566.795-9.791C565.635-9.217 564.399-8.930 563.086-8.930C561.774-8.930 560.538-9.199 559.377-9.738C558.217-10.277 557.209-11.016 556.354-11.953C555.499-12.891 554.825-13.980 554.332-15.223C553.840-16.465 553.594-17.777 553.594-19.160C553.594-20.754 553.840-22.184 554.332-23.449C554.825-24.715 555.499-25.787 556.354-26.666C557.209-27.545 558.217-28.219 559.377-28.688C560.538-29.156 561.774-29.391 563.086-29.391C564.399-29.391 565.635-29.104 566.795-28.529C567.956-27.955 568.969-27.193 569.836-26.244C570.704-25.295 571.389-24.205 571.893-22.975C572.397-21.744 572.649-20.473 572.649-19.160Z" fill="#FFFFFF"></path><path d="M600.518-47.883C600.518-48.750 600.348-49.576 600.008-50.361C599.668-51.146 599.205-51.826 598.619-52.400C598.033-52.975 597.348-53.432 596.563-53.771C595.777-54.111 594.940-54.281 594.049-54.281C593.158-54.281 592.320-54.111 591.535-53.771C590.750-53.432 590.070-52.975 589.496-52.400C588.922-51.827 588.465-51.147 588.125-50.361C587.785-49.576 587.615-48.750 587.615-47.883C587.615-46.992 587.785-46.160 588.125-45.387C588.465-44.613 588.922-43.939 589.496-43.365C590.070-42.791 590.750-42.334 591.535-41.994C592.320-41.654 593.158-41.484 594.049-41.484C594.940-41.484 595.777-41.654 596.563-41.994C597.348-42.334 598.033-42.791 598.619-43.365C599.205-43.939 599.668-44.613 600.008-45.387C600.348-46.160 600.518-46.992 600.518-47.883ZM598.865 0L598.865-37.652L589.197-37.652L589.197 0Z" fill="#FFFFFF"></path><path d="M642.133-19.160C642.133-22.160 641.629-24.885 640.621-27.334C639.613-29.783 638.242-31.881 636.508-33.627C634.773-35.373 632.740-36.721 630.408-37.670C628.076-38.619 625.574-39.094 622.902-39.094C620.254-39.094 617.763-38.590 615.431-37.582C613.099-36.574 611.060-35.186 609.314-33.416C607.568-31.646 606.191-29.543 605.183-27.105C604.176-24.668 603.672-22.020 603.672-19.160C603.672-16.348 604.176-13.729 605.183-11.303C606.191-8.877 607.568-6.779 609.314-5.010C611.060-3.240 613.099-1.846 615.431-0.826C617.763 0.193 620.254 0.703 622.902 0.703C625.574 0.703 628.076 0.193 630.408-0.826C632.740-1.846 634.773-3.240 636.508-5.010C638.242-6.779 639.613-8.877 640.621-11.303C641.629-13.729 642.133-16.348 642.133-19.160ZM632.465-19.160C632.465-17.637 632.213-16.242 631.709-14.977C631.205-13.711 630.519-12.633 629.652-11.742C628.785-10.852 627.771-10.160 626.611-9.668C625.451-9.176 624.215-8.930 622.902-8.930C621.590-8.930 620.353-9.193 619.193-9.721C618.033-10.248 617.025-10.969 616.170-11.883C615.314-12.797 614.640-13.875 614.148-15.117C613.656-16.359 613.410-17.707 613.410-19.160C613.410-20.707 613.656-22.107 614.148-23.361C614.640-24.615 615.314-25.693 616.170-26.596C617.025-27.498 618.033-28.189 619.193-28.670C620.353-29.150 621.590-29.391 622.902-29.391C624.215-29.391 625.451-29.150 626.611-28.670C627.771-28.190 628.785-27.498 629.652-26.596C630.519-25.693 631.205-24.615 631.709-23.361C632.213-22.107 632.465-20.707 632.465-19.160Z" fill="#FFFFFF"></path></g></g><g transform="translate(-186.94599999999514 -85.99999999999999) scale(6.25)" id="logomark"><g fill="#FFFFFF"><path fill-rule="evenodd" d="M23 11.586L18.586 16H3a1 1 0 0 1 0-2h14.414L21 10.414V6c0-1.102-.897-2-2-2h-4v2h4v3.586L16.586 12H13V2h7c1.654 0 3 1.346 3 3v6.586zm-15 13l-1 1c-.535.533-1.465.533-2 0l-1-1V18h4v6.586zM7 6.815A2.995 2.995 0 0 0 9 4V2h2v10H7V6.815zM5 2h2v2a1 1 0 0 1-2 0V2zm15-2H3v4c0 1.302.839 2.4 2 2.815V12H3c-1.654 0-3 1.346-3 3 0 1.302.839 2.4 2 2.815v7.599L3.586 27c.4.4.888.674 1.414.835V32h2v-4.165A3.381 3.381 0 0 0 8.414 27L10 25.414V18h9.414L25 12.414V5c0-2.757-2.243-5-5-5z" fill="#FFFFFF"></path></g></g></svg>