<svg id="eX3itPLbRf51" xmlns="http://www.w3.org/2000/svg" xmlns:xlink="http://www.w3.org/1999/xlink" viewBox="0 0 32 32" shape-rendering="geometricPrecision" text-rendering="geometricPrecision"><g transform="matrix(1.262931 0 0 1.262649 15.381441 13.72776)"><g><g transform="matrix(.343137 0 0 0.343137-17.5-17.5)"><g><circle r="36.923568" transform="translate(52.430024 56.238916)" fill="#150e13"/></g></g><g transform="matrix(.625 0 0 0.625-7.34375-8.6)"><g><path d="M23.310854,11.469933l-4.473657,4.369781h-15.796651c-.559749,0-1.013515-.44323-1.013515-.989982s.453766-.989982,1.013515-.989982h14.608811l3.634466-3.550076v-4.369781c0-1.09096-.909123-1.979964-2.027031-1.979964h-4.054061v1.979964h4.054061v3.550076l-2.446626,2.389817h-3.634466v-9.899822h7.094608c1.676354,0,3.040546,1.332516,3.040546,2.969946v6.520022ZM8.108123,24.339701l-1.013515.989982c-.542231.52766-1.4848.52766-2.027031,0l-1.013515-.989982v-6.520022h4.054061v6.520022ZM7.094608,6.746728c1.211097-.416668,2.022788-1.532595,2.027031-2.7868v-1.979964h2.027031v9.899822h-4.054061v-5.133057ZM5.067577,1.979964h2.027031v1.979964c0,.546752-.453766.989982-1.013515.989982s-1.013515-.44323-1.013515-.989982v-1.979964ZM20.270307,0L3.040546,0v3.959929c0,1.288957.850339,2.375957,2.027031,2.7868v5.133057h-2.027031C1.364192,11.879786,0,13.212302,0,14.849732c0,1.288957.850339,2.375957,2.027031,2.7868v7.522874l1.607435,1.570112c.405406.395993.900002.667248,1.433111.826635v4.123276h2.027031v-4.123276c.539992-.15632,1.032214-.440239,1.433111-.826635l1.607435-1.570112v-7.339728h9.541234l5.661497-5.53004v-7.339728C25.337884,2.22053,23.064569,0,20.270307,0Z" transform="translate(-.133852 0.79653)" fill="#fb0" fill-rule="evenodd"/></g></g></g></g></svg>