<svg id="visual" viewBox="0 0 960 540" width="960" height="540" xmlns="http://www.w3.org/2000/svg" xmlns:xlink="http://www.w3.org/1999/xlink" version="1.1"><rect x="0" y="0" width="960" height="540" fill="#001220"></rect><defs><linearGradient id="grad1_0" x1="43.8%" y1="0%" x2="100%" y2="100%"><stop offset="14.444444444444446%" stop-color="#fbae3c" stop-opacity="1"></stop><stop offset="85.55555555555554%" stop-color="#fbae3c" stop-opacity="1"></stop></linearGradient></defs><defs><linearGradient id="grad1_1" x1="43.8%" y1="0%" x2="100%" y2="100%"><stop offset="14.444444444444446%" stop-color="#fbae3c" stop-opacity="1"></stop><stop offset="85.55555555555554%" stop-color="#f48350" stop-opacity="1"></stop></linearGradient></defs><defs><linearGradient id="grad1_2" x1="43.8%" y1="0%" x2="100%" y2="100%"><stop offset="14.444444444444446%" stop-color="#d96162" stop-opacity="1"></stop><stop offset="85.55555555555554%" stop-color="#f48350" stop-opacity="1"></stop></linearGradient></defs><defs><linearGradient id="grad1_3" x1="43.8%" y1="0%" x2="100%" y2="100%"><stop offset="14.444444444444446%" stop-color="#d96162" stop-opacity="1"></stop><stop offset="85.55555555555554%" stop-color="#af4b6d" stop-opacity="1"></stop></linearGradient></defs><defs><linearGradient id="grad1_4" x1="43.8%" y1="0%" x2="100%" y2="100%"><stop offset="14.444444444444446%" stop-color="#7c3e6b" stop-opacity="1"></stop><stop offset="85.55555555555554%" stop-color="#af4b6d" stop-opacity="1"></stop></linearGradient></defs><defs><linearGradient id="grad1_5" x1="43.8%" y1="0%" x2="100%" y2="100%"><stop offset="14.444444444444446%" stop-color="#7c3e6b" stop-opacity="1"></stop><stop offset="85.55555555555554%" stop-color="#49335c" stop-opacity="1"></stop></linearGradient></defs><defs><linearGradient id="grad1_6" x1="43.8%" y1="0%" x2="100%" y2="100%"><stop offset="14.444444444444446%" stop-color="#1d2540" stop-opacity="1"></stop><stop offset="85.55555555555554%" stop-color="#49335c" stop-opacity="1"></stop></linearGradient></defs><defs><linearGradient id="grad1_7" x1="43.8%" y1="0%" x2="100%" y2="100%"><stop offset="14.444444444444446%" stop-color="#1d2540" stop-opacity="1"></stop><stop offset="85.55555555555554%" stop-color="#001220" stop-opacity="1"></stop></linearGradient></defs><defs><linearGradient id="grad2_0" x1="0%" y1="0%" x2="56.3%" y2="100%"><stop offset="14.444444444444446%" stop-color="#fbae3c" stop-opacity="1"></stop><stop offset="85.55555555555554%" stop-color="#fbae3c" stop-opacity="1"></stop></linearGradient></defs><defs><linearGradient id="grad2_1" x1="0%" y1="0%" x2="56.3%" y2="100%"><stop offset="14.444444444444446%" stop-color="#f48350" stop-opacity="1"></stop><stop offset="85.55555555555554%" stop-color="#fbae3c" stop-opacity="1"></stop></linearGradient></defs><defs><linearGradient id="grad2_2" x1="0%" y1="0%" x2="56.3%" y2="100%"><stop offset="14.444444444444446%" stop-color="#f48350" stop-opacity="1"></stop><stop offset="85.55555555555554%" stop-color="#d96162" stop-opacity="1"></stop></linearGradient></defs><defs><linearGradient id="grad2_3" x1="0%" y1="0%" x2="56.3%" y2="100%"><stop offset="14.444444444444446%" stop-color="#af4b6d" stop-opacity="1"></stop><stop offset="85.55555555555554%" stop-color="#d96162" stop-opacity="1"></stop></linearGradient></defs><defs><linearGradient id="grad2_4" x1="0%" y1="0%" x2="56.3%" y2="100%"><stop offset="14.444444444444446%" stop-color="#af4b6d" stop-opacity="1"></stop><stop offset="85.55555555555554%" stop-color="#7c3e6b" stop-opacity="1"></stop></linearGradient></defs><defs><linearGradient id="grad2_5" x1="0%" y1="0%" x2="56.3%" y2="100%"><stop offset="14.444444444444446%" stop-color="#49335c" stop-opacity="1"></stop><stop offset="85.55555555555554%" stop-color="#7c3e6b" stop-opacity="1"></stop></linearGradient></defs><defs><linearGradient id="grad2_6" x1="0%" y1="0%" x2="56.3%" y2="100%"><stop offset="14.444444444444446%" stop-color="#49335c" stop-opacity="1"></stop><stop offset="85.55555555555554%" stop-color="#1d2540" stop-opacity="1"></stop></linearGradient></defs><defs><linearGradient id="grad2_7" x1="0%" y1="0%" x2="56.3%" y2="100%"><stop offset="14.444444444444446%" stop-color="#001220" stop-opacity="1"></stop><stop offset="85.55555555555554%" stop-color="#1d2540" stop-opacity="1"></stop></linearGradient></defs><g transform="translate(960, 0)"><path d="M0 486C-104.4 484.5 -208.7 482.9 -243 420.9C-277.3 358.8 -241.4 236.2 -270.2 156C-299 75.8 -392.5 37.9 -486 0L0 0Z" fill="#0c1c30"></path><path d="M0 425.3C-91.3 423.9 -182.7 422.6 -212.6 368.3C-242.6 314 -211.2 206.7 -236.4 136.5C-261.6 66.3 -343.4 33.1 -425.2 0L0 0Z" fill="#312c4f"></path><path d="M0 364.5C-78.3 363.4 -156.6 362.2 -182.2 315.7C-207.9 269.1 -181 177.2 -202.6 117C-224.3 56.8 -294.4 28.4 -364.5 0L0 0Z" fill="#623965"></path><path d="M0 303.8C-65.2 302.8 -130.5 301.8 -151.9 263.1C-173.3 224.3 -150.9 147.6 -168.9 97.5C-186.9 47.4 -245.3 23.7 -303.7 0L0 0Z" fill="#96446e"></path><path d="M0 243C-52.2 242.2 -104.4 241.5 -121.5 210.4C-138.6 179.4 -120.7 118.1 -135.1 78C-149.5 37.9 -196.3 18.9 -243 0L0 0Z" fill="#c55469"></path><path d="M0 182.3C-39.1 181.7 -78.3 181.1 -91.1 157.8C-104 134.6 -90.5 88.6 -101.3 58.5C-112.1 28.4 -147.2 14.2 -182.2 0L0 0Z" fill="#e9705a"></path><path d="M0 121.5C-26.1 121.1 -52.2 120.7 -60.7 105.2C-69.3 89.7 -60.3 59.1 -67.5 39C-74.8 18.9 -98.1 9.5 -121.5 0L0 0Z" fill="#fa9845"></path><path d="M0 60.8C-13 60.6 -26.1 60.4 -30.4 52.6C-34.7 44.9 -30.2 29.5 -33.8 19.5C-37.4 9.5 -49.1 4.7 -60.7 0L0 0Z" fill="#fbae3c"></path></g><g transform="translate(0, 540)"><path d="M0 -486C94.9 -479 189.8 -472 243 -420.9C296.2 -369.8 307.7 -274.5 341.2 -197C374.8 -119.5 430.4 -59.7 486 0L0 0Z" fill="#0c1c30"></path><path d="M0 -425.2C83 -419.1 166.1 -413 212.6 -368.3C259.2 -323.5 269.2 -240.2 298.6 -172.4C327.9 -104.6 376.6 -52.3 425.3 0L0 0Z" fill="#312c4f"></path><path d="M0 -364.5C71.2 -359.3 142.4 -354 182.2 -315.7C222.1 -277.3 230.7 -205.9 255.9 -147.8C281.1 -89.6 322.8 -44.8 364.5 0L0 0Z" fill="#623965"></path><path d="M0 -303.7C59.3 -299.4 118.6 -295 151.9 -263.1C185.1 -231.1 192.3 -171.6 213.3 -123.1C234.2 -74.7 269 -37.3 303.8 0L0 0Z" fill="#96446e"></path><path d="M0 -243C47.5 -239.5 94.9 -236 121.5 -210.4C148.1 -184.9 153.8 -137.3 170.6 -98.5C187.4 -59.7 215.2 -29.9 243 0L0 0Z" fill="#c55469"></path><path d="M0 -182.2C35.6 -179.6 71.2 -177 91.1 -157.8C111.1 -138.7 115.4 -102.9 128 -73.9C140.5 -44.8 161.4 -22.4 182.3 0L0 0Z" fill="#e9705a"></path><path d="M0 -121.5C23.7 -119.8 47.5 -118 60.7 -105.2C74 -92.4 76.9 -68.6 85.3 -49.3C93.7 -29.9 107.6 -14.9 121.5 0L0 0Z" fill="#fa9845"></path><path d="M0 -60.7C11.9 -59.9 23.7 -59 30.4 -52.6C37 -46.2 38.5 -34.3 42.7 -24.6C46.8 -14.9 53.8 -7.5 60.8 0L0 0Z" fill="#fbae3c"></path></g></svg>